<svg xmlns="http://www.w3.org/2000/svg" width="138" height="20" viewBox="0 0 138 20" fill="none" style="&#10;">
<path d="M20.2488 5.72404C20.1119 5.59467 19.9719 5.4653 19.8285 5.33594L18.8381 6.31912C18.9619 6.42908 19.0857 6.54228 19.2095 6.65871L20.252 5.72404H20.2488Z" fill="white"/>
<path d="M0.480902 7.57031C0.389682 7.91637 0.311495 8.27212 0.246338 8.63111L10.0133 8.12982C9.97096 7.96488 9.93839 7.79994 9.91232 7.63823L0.48416 7.57031H0.480902Z" fill="white"/>
<path d="M9.84613 6.40465L1.47025 4.95898C1.31061 5.2727 1.16075 5.59611 1.02393 5.93246L9.83636 6.87037C9.8331 6.71189 9.83636 6.55666 9.84939 6.40465H9.84613Z" fill="white"/>
<path d="M3.02479 2.70117C2.79023 2.95344 2.56543 3.2251 2.35693 3.51294L9.96723 5.70247C10.0063 5.56663 10.0519 5.43403 10.1073 5.3079L3.02479 2.70117Z" fill="white"/>
<path d="M5.1458 1.06055C4.84283 1.21902 4.55288 1.3969 4.27271 1.59742L10.4235 4.76042C10.4952 4.66339 10.5766 4.5696 10.6613 4.48228L5.1458 1.06055Z" fill="white"/>
<path d="M0.643066 16.0893C0.744059 16.4548 0.858083 16.8106 0.981881 17.1598L11.837 11.7394C11.7295 11.5971 11.6252 11.4548 11.5275 11.3125L0.643066 16.0893Z" fill="white"/>
<path d="M7.62074 0.316406C7.47739 0.329343 7.3373 0.348748 7.19396 0.371387C7.00826 0.400494 6.82908 0.439304 6.6499 0.484582L11.0806 4.14241C11.1685 4.08419 11.2597 4.03245 11.3542 3.98394L7.62074 0.316406Z" fill="white"/>
<path d="M0.0358361 10.3707C0.00977349 10.7329 0 11.1016 0 11.4736L10.4446 9.394C10.3762 9.23229 10.311 9.07058 10.2524 8.91211L0.0358361 10.3707Z" fill="white"/>
<path d="M0.0986328 13.2435C0.134469 13.5896 0.183336 13.9356 0.241977 14.2849C0.245235 14.3043 0.248493 14.327 0.251751 14.3464L11.0677 10.6077C10.9765 10.4557 10.8918 10.3037 10.8104 10.1484L0.0986328 13.2435Z" fill="white"/>
<path d="M18.0138 3.87688C17.8672 3.77016 17.7206 3.66666 17.574 3.56641L16.8442 4.86007C16.9746 4.93769 17.1016 5.01531 17.2319 5.09939L18.0138 3.87688Z" fill="white"/>
<path d="M15.6939 2.41248C15.5408 2.3284 15.3909 2.25078 15.2378 2.16992L14.886 3.96811C15.0065 4.00692 15.1271 4.04896 15.2476 4.09424L15.6939 2.41248Z" fill="white"/>
<path d="M16.8669 3.10303C16.717 3.00924 16.5671 2.91868 16.4205 2.82812L15.8472 4.34494C15.9742 4.40316 16.1013 4.46461 16.2283 4.52929L16.8669 3.10626V3.10303Z" fill="white"/>
<path d="M19.1467 4.75035C19.0034 4.63392 18.86 4.51749 18.7134 4.4043L17.8501 5.52655C17.9772 5.62034 18.1075 5.71736 18.2345 5.81762L19.1467 4.75359V4.75035Z" fill="white"/>
<path d="M13.2328 1.28328C13.0568 1.2186 12.8842 1.15392 12.7083 1.0957L13.2262 3.64745C13.3207 3.65392 13.4185 3.66039 13.5129 3.67009L13.2295 1.28328H13.2328Z" fill="white"/>
<path d="M11.7984 0.814051C11.5834 0.755837 11.3717 0.700856 11.1599 0.652344L12.5217 3.66011C12.6096 3.6504 12.7009 3.64393 12.7888 3.6407L11.7984 0.814051Z" fill="white"/>
<path d="M14.4973 1.81178C14.3377 1.7374 14.1813 1.66948 14.0217 1.60156L14.0054 3.74581C14.1129 3.76521 14.2236 3.79108 14.3312 3.81696L14.494 1.81502L14.4973 1.81178Z" fill="white"/>
<path d="M9.98945 0.437477C9.78095 0.40837 9.57571 0.385731 9.37047 0.366326C9.29228 0.353389 9.21735 0.343687 9.13916 0.333984L11.7975 3.80746C11.8888 3.77836 11.9832 3.75248 12.081 3.73308L9.98945 0.437477Z" fill="white"/>
<path d="M12.2342 14.2784C12.371 14.4078 12.5111 14.5372 12.6545 14.6665L13.6449 13.6833C13.5211 13.5734 13.3973 13.4602 13.2735 13.3438L12.231 14.2784H12.2342Z" fill="white"/>
<path d="M32.0002 12.4319C32.0914 12.0858 32.1696 11.7301 32.2347 11.3711L22.4678 11.8724C22.5101 12.0373 22.5427 12.2023 22.5688 12.364L31.9969 12.4319H32.0002Z" fill="white"/>
<path d="M22.6404 13.6024L31.0195 15.0481C31.1792 14.7344 31.329 14.411 31.4658 14.0746L22.6534 13.1367C22.6567 13.2952 22.6534 13.4504 22.6404 13.6024Z" fill="white"/>
<path d="M29.4563 17.3021C29.6909 17.0498 29.9157 16.7781 30.1242 16.4903L22.5139 14.3008C22.4748 14.4366 22.4292 14.5692 22.3738 14.6953L29.453 17.3021H29.4563Z" fill="white"/>
<path d="M27.338 18.9421C27.641 18.7836 27.9309 18.6057 28.2111 18.4052L22.0603 15.2422C21.9887 15.3392 21.9072 15.433 21.8225 15.5203L27.338 18.9453V18.9421Z" fill="white"/>
<path d="M31.8423 3.91621C31.7414 3.55075 31.6273 3.19499 31.5035 2.8457L20.6484 8.26614C20.7559 8.40844 20.8602 8.55075 20.9579 8.69305L31.8391 3.91621H31.8423Z" fill="white"/>
<path d="M24.8638 19.6893C25.0072 19.6763 25.1473 19.6569 25.2906 19.6343C25.4763 19.6052 25.6555 19.5664 25.8347 19.5211L21.404 15.8633C21.3161 15.9215 21.2248 15.9732 21.1304 16.0218L24.8638 19.6925V19.6893Z" fill="white"/>
<path d="M32.4464 9.63214C32.4692 9.26992 32.4822 8.90122 32.4822 8.5293L22.0376 10.6089C22.106 10.7706 22.1712 10.9323 22.2298 11.0907L32.4496 9.63214H32.4464Z" fill="white"/>
<path d="M32.3883 6.763C32.3525 6.41695 32.3036 6.07089 32.245 5.72161C32.2417 5.7022 32.2384 5.67956 32.2352 5.66016L21.4192 9.39884C21.5104 9.55084 21.5951 9.70285 21.6766 9.85809L32.3883 6.763Z" fill="white"/>
<path d="M14.467 16.1288C14.6136 16.2355 14.7602 16.339 14.9068 16.4392L15.6366 15.1456C15.5063 15.068 15.3792 14.9903 15.2489 14.9062L14.467 16.1288Z" fill="white"/>
<path d="M16.7881 17.59C16.9412 17.6741 17.0911 17.7517 17.2442 17.8325L17.596 16.0343C17.4755 15.9955 17.3549 15.9535 17.2344 15.9082L16.7881 17.59Z" fill="white"/>
<path d="M15.6187 16.9048C15.7685 16.9986 15.9184 17.0891 16.065 17.1797L16.6384 15.6629C16.5113 15.6046 16.3842 15.5432 16.2572 15.4785L15.6187 16.9015V16.9048Z" fill="white"/>
<path d="M13.3376 15.2548C13.481 15.3712 13.6243 15.4876 13.7709 15.6008L14.6343 14.4786C14.5072 14.3848 14.3769 14.2878 14.2498 14.1875L13.3376 15.2515V15.2548Z" fill="white"/>
<path d="M19.2506 18.7208C19.4266 18.7855 19.5992 18.8502 19.7751 18.9084L19.2571 16.3566C19.1627 16.3502 19.0649 16.3437 18.9705 16.334L19.2539 18.7208H19.2506Z" fill="white"/>
<path d="M20.6867 19.1918C20.9017 19.25 21.1134 19.305 21.3252 19.3535L19.9634 16.3457C19.8755 16.3554 19.7843 16.3619 19.6963 16.3651L20.6867 19.1918Z" fill="white"/>
<path d="M17.9868 18.1927C18.1465 18.2671 18.3028 18.335 18.4625 18.4029L18.4787 16.2587C18.3712 16.2392 18.2605 16.2134 18.153 16.1875L17.9901 18.1894L17.9868 18.1927Z" fill="white"/>
<path d="M22.4958 19.5692C22.7043 19.5983 22.9096 19.621 23.1148 19.6404C23.193 19.6533 23.2679 19.663 23.3461 19.6727L20.6877 16.1992C20.5965 16.2283 20.502 16.2542 20.4043 16.2736L22.4958 19.5692Z" fill="white"/>
<path d="M31.2869 0L30.1402 0.0226391L30.1369 0.0194049L19.8357 7.37063L13.8543 11.3422L13.4438 11.6138L12.8411 12.0149L1.79054 18.9101H1.78728V18.9133H1.78403L1.78728 18.9166L1.16504 20L2.37044 19.9838L13.2223 12.1766L19.2981 8.14036V8.13713L20.0181 7.66171L30.6973 1.0511H30.7005V1.04787H30.7038V1.04463L31.2869 0Z" fill="white"/>
<path d="M47.751 1.94922C52.7355 1.94922 56.3843 5.51002 56.3843 10.2869C56.3843 15.0637 52.7355 18.6148 47.751 18.6148H40.9976V1.94922H47.751ZM47.7119 16.2797C51.2858 16.2797 53.6607 13.6633 53.6607 10.2869C53.6607 6.91041 51.2858 4.2584 47.7119 4.2584H43.5941V16.283H47.7119V16.2797Z" fill="white"/>
<path d="M59.6507 1.9375H71.4278V4.28226H62.2472V8.87476H70.1279V11.2195H62.2472V16.268H71.6851V18.6128H59.6475V1.9375H59.6507Z" fill="white"/>
<path d="M87.1127 18.6128H74.9414V1.9375H77.5509V16.268H87.1127V18.6128Z" fill="white"/>
<path d="M90.2073 13.7386C91.012 15.3719 92.5562 16.5394 94.8334 16.5394C96.7751 16.5394 98.2835 15.6177 98.2835 14.1558C98.2835 12.694 96.9477 12.141 94.4718 11.3551C91.2791 10.3363 88.7706 9.27873 88.7934 6.33242C88.8195 3.28584 91.7124 1.69141 94.5076 1.69141C97.6123 1.69141 99.5931 3.35053 100.531 5.12931L98.5148 6.5297C97.798 5.23927 96.4363 4.03617 94.5076 4.03617C92.9113 4.03617 91.4029 4.84794 91.4029 6.31948C91.4029 7.79102 92.7777 8.18559 95.1527 8.98442C98.2834 10.042 100.893 10.899 100.893 14.13C100.893 17.3609 97.7622 18.8583 94.8823 18.8583C91.5919 18.8583 89.2299 17.1895 88.2656 15.0743L90.2073 13.7354V13.7386Z" fill="white"/>
<path d="M103.99 12.5843V1.9375H106.563V12.4744C106.563 14.9194 108.319 16.4653 111.052 16.4653C113.786 16.4653 115.532 14.9194 115.532 12.4744V1.9375H118.106V12.5843C118.106 16.4039 115.359 18.8586 111.056 18.8586C106.752 18.8586 103.993 16.4039 103.993 12.5843H103.99Z" fill="white"/>
<path d="M129.028 1.94922C134.012 1.94922 137.661 5.51002 137.661 10.2869C137.661 15.0637 134.012 18.6148 129.028 18.6148H122.274V1.94922H129.028ZM128.989 16.2797C132.563 16.2797 134.938 13.6633 134.938 10.2869C134.938 6.91041 132.563 4.2584 128.989 4.2584H124.871V16.283H128.989V16.2797Z" fill="white"/>
</svg>
