<svg xmlns="http://www.w3.org/2000/svg" viewBox="0 0 128 128">
  <path fill="#339933" d="M112.234 23.782c1.907 1.102 3.088 3.14 3.088 5.345v70.746c0 2.206-1.18 4.244-3.088 5.345l-61.128 35.3c-1.907 1.102-4.244 1.102-6.152 0L3.088 105.218C1.18 104.117 0 102.079 0 99.873V29.127c0-2.206 1.18-4.244 3.088-5.345L64.216.482c1.907-1.102 4.244-1.102 6.152 0l41.866 23.3z"/>
  <path fill="#fff" d="M64 19.678c-13.598 0-24.622 11.024-24.622 24.622S50.402 68.922 64 68.922s24.622-11.024 24.622-24.622S77.598 19.678 64 19.678m0 7.34c9.55 0 17.282 7.732 17.282 17.282S73.55 61.582 64 61.582 46.718 53.85 46.718 44.3 54.45 27.018 64 27.018"/>
</svg>
