<svg width="127" height="29" viewBox="0 0 127 29" fill="none" xmlns="http://www.w3.org/2000/svg">
<path d="M0 28.4667V0H12.6146C18.8405 0 22.9097 3.88889 22.9097 9.64444C22.9097 15.75 18.8405 19.4833 12.6146 19.4833H6.71421V28.4667H0ZM12.167 13.5722C14.6899 13.5722 16.1955 12.0944 16.1955 9.76111C16.1955 7.46667 14.6899 6.06667 12.167 6.06667H6.71421V13.5722H12.167Z" fill="white"/>
<path d="M26.7059 28.4667V0H33.4201V22.4H46.9706V28.4667H26.7059Z" fill="white"/>
<path d="M52.4478 28.4667V17.3444H48.5007L42.641 0H49.9656L55.5811 17.3444H55.988L61.6036 0H68.9282L63.0685 17.3444H59.1213V28.4667H52.4478Z" fill="white"/>
<path d="M66.4981 28.4667L74.1075 0H87.3732L94.9826 28.4667H87.8615L86.6 23.4111H74.8807L73.6192 28.4667H66.4981ZM76.3863 17.4222H85.0944L80.9845 1.16667H80.4962L76.3863 17.4222Z" fill="white"/>
<path d="M96.5763 28.4667V23.3333L109.516 6.06667H96.1694V0H118.184V5.13333L105.284 22.4H119.16V28.4667H96.5763Z" fill="white"/>
<circle cx="123.531" cy="25.0679" r="3.39602" fill="white"/>
</svg>
